<svg width="24" height="20" viewBox="0 0 24 20" fill="none" xmlns="http://www.w3.org/2000/svg">
<path d="M22.6508 8.11828L22.6883 8.12647H6.62857L11.6772 3.06676C11.9244 2.81974 12.06 2.48511 12.06 2.13389C12.06 1.78267 11.9244 1.45037 11.6772 1.20276L10.8916 0.416813C10.6446 0.169788 10.3154 0.0332031 9.96437 0.0332031C9.61315 0.0332031 9.28378 0.168813 9.03676 0.415837L0.382517 9.0693C0.134517 9.3173 -0.00109245 9.64764 -0.000116843 9.99906C-0.00109245 10.3524 0.134517 10.683 0.382517 10.9306L9.03676 19.5848C9.28378 19.8316 9.61296 19.9674 9.96437 19.9674C10.3154 19.9674 10.6446 19.8314 10.8916 19.5848L11.6772 18.7989C11.9244 18.5522 12.06 18.2229 12.06 17.8716C12.06 17.5206 11.9244 17.2086 11.6772 16.9618L6.57159 11.8738H22.6688C23.3921 11.8738 23.9999 11.2504 23.9999 10.5274V9.41584C23.9999 8.69291 23.3741 8.11828 22.6508 8.11828Z" fill="white"/>
</svg>
