<svg width="16" height="16" viewBox="0 0 16 16" fill="none" xmlns="http://www.w3.org/2000/svg">
<path d="M8 1C4.14027 1 1 4.14027 1 8C1 11.8597 4.14027 15 8 15C11.8597 15 15 11.8597 15 8C15 4.14027 11.8597 1 8 1ZM8 14.125C4.62262 14.125 1.875 11.3774 1.875 8C1.875 4.62262 4.62262 1.875 8 1.875C11.3774 1.875 14.125 4.62262 14.125 8C14.125 11.3774 11.3774 14.125 8 14.125Z" fill="#999999"/>
<path d="M8.4375 3.625H7.5625V8.18114L10.3157 10.9343L10.9343 10.3157L8.4375 7.81884V3.625Z" fill="#999999"/>
</svg>
