<svg width="16" height="16" viewBox="0 0 16 16" fill="none" xmlns="http://www.w3.org/2000/svg">
<path fill-rule="evenodd" clip-rule="evenodd" d="M2.80495 5.4629C2.98595 5.28689 3.27537 5.29094 3.45138 5.47194L7.99984 10.1494L12.5483 5.47194C12.7243 5.29094 13.0137 5.28689 13.1947 5.4629C13.3757 5.63892 13.3798 5.92833 13.2038 6.10934L8.55754 10.8873C8.55751 10.8873 8.55748 10.8874 8.55745 10.8874C8.5574 10.8875 8.55735 10.8875 8.5573 10.8876C8.41173 11.0374 8.21146 11.124 7.99984 11.124C7.78821 11.124 7.58795 11.0374 7.44238 10.8876C7.4423 10.8875 7.44222 10.8874 7.44214 10.8873L2.79591 6.10934C2.6199 5.92833 2.62394 5.63892 2.80495 5.4629ZM7.90158 10.2504C7.90166 10.2503 7.90174 10.2503 7.90182 10.2502L7.90158 10.2504Z" fill="#222222"/>
</svg>
