<svg width="16" height="16" viewBox="0 0 16 16" fill="none" xmlns="http://www.w3.org/2000/svg">
<path d="M14.9286 13.2812L12.3419 8.80073C13.0389 7.88278 13.4532 6.73898 13.4532 5.50011C13.4532 2.46733 10.9999 0 7.98439 0C4.96886 0 2.51553 2.46733 2.51553 5.50011C2.51553 6.74948 2.93694 7.90209 3.64471 8.82395L1.07144 13.2812C0.865559 13.6377 1.178 14.0701 1.5807 13.9887C1.65717 13.9715 1.11369 14.0875 3.71055 13.5382L4.38819 15.6688C4.51482 16.0646 5.0527 16.1191 5.25718 15.7592C8.12214 10.7416 7.98404 10.9688 8.00754 10.9687L10.7429 15.7593C10.9503 16.1218 11.4893 16.0606 11.613 15.6649L12.2895 13.5383L14.4157 13.988C14.8281 14.0704 15.1325 13.634 14.9286 13.2812ZM7.98439 0.937518C10.483 0.937518 12.5157 2.98428 12.5157 5.50011C12.5157 7.99869 10.483 10.0314 7.98439 10.0314C5.48581 10.0314 3.45305 7.99869 3.45305 5.50011C3.45305 2.98428 5.48581 0.937518 7.98439 0.937518ZM4.96314 14.3834L4.47541 12.8498C4.40238 12.6202 4.16737 12.4836 3.93171 12.5332L2.39862 12.8575L4.30975 9.54709C5.04242 10.2129 5.9561 10.6827 6.96708 10.8737L4.96314 14.3834ZM12.0683 12.5332C11.8325 12.4834 11.5976 12.6202 11.5247 12.8498L11.0369 14.3834L9.02981 10.8683C10.0391 10.6721 10.95 10.1978 11.6793 9.52822L13.6014 12.8575L12.0683 12.5332Z" fill="#222222"/>
<path fill-rule="evenodd" clip-rule="evenodd" d="M10.041 5.95884C10.1095 5.89134 10.1727 5.81602 10.2295 5.73312C10.6908 5.02748 10.4654 4.13749 9.82731 3.71847C9.25628 3.32926 8.47768 3.41473 7.99419 3.89784L7.99417 3.89781L7.99413 3.89784C7.74175 3.64362 7.3889 3.47731 6.96732 3.47193C6.06669 3.48463 5.44004 4.24487 5.52268 5.06714C5.56034 5.43205 5.71681 5.73177 5.94022 5.95176L5.94022 5.95176L7.99417 8.00571L10.041 5.95884Z" fill="#222222"/>
</svg>
