<svg width="12" height="20" viewBox="0 0 12 20" fill="none" xmlns="http://www.w3.org/2000/svg">
<path d="M11.45 5.975C11.372 5.88617 11.2599 5.83467 11.1417 5.83333H8V4.65833C8 4.425 8.05 4.15833 8.425 4.15833H10.925C11.0362 4.16307 11.1434 4.11709 11.2167 4.03333C11.2901 3.95714 11.3318 3.85583 11.3333 3.75V0.41667C11.3333 0.18655 11.1468 0 10.9167 0H7.3083C3.30833 0 3 3.41667 3 4.45833V5.83333H0.91667C0.68655 5.83333 0.5 6.01988 0.5 6.25V9.5833C0.5 9.8135 0.68655 10 0.91667 10H3V19.5833C3 19.8135 3.18655 20 3.41667 20H7.5833C7.8135 20 8 19.8135 8 19.5833V10H10.7917C11.0064 10.0011 11.1869 9.8387 11.2083 9.625L11.5583 6.29167C11.5681 6.17561 11.5288 6.06078 11.45 5.975Z" fill="#0E7ACB"/>
</svg>
