<svg width="15" height="12" viewBox="0 0 15 12" fill="none" xmlns="http://www.w3.org/2000/svg">
<path d="M5.12256 4.39962C5.659 3.94072 6 3.25962 6 2.5C6 1.1215 4.8785 0 3.5 0C2.1215 0 1 1.1215 1 2.5C1 3.25962 1.341 3.94072 1.87744 4.39962C0.762375 4.98556 0 6.15534 0 7.5V10.5132C0 10.7284 0.137719 10.9194 0.341875 10.9875C1.36206 11.3276 2.42462 11.5 3.5 11.5C4.57538 11.5 5.63794 11.3276 6.65812 10.9875C6.86231 10.9195 7 10.7284 7 10.5132V7.5C7 6.15534 6.23763 4.98556 5.12256 4.39962ZM2 2.5C2 1.67291 2.67291 1 3.5 1C4.32709 1 5 1.67291 5 2.5C5 3.32709 4.32709 4 3.5 4C2.67291 4 2 3.32709 2 2.5ZM6 10.1451C4.37509 10.6143 2.62491 10.6143 1 10.1451V7.5C1 6.1215 2.1215 5 3.5 5C4.8785 5 6 6.1215 6 7.5V10.1451Z" fill="#222222"/>
<path d="M13.1226 4.39962C13.659 3.94072 14 3.25962 14 2.5C14 1.1215 12.8785 0 11.5 0C10.1215 0 9 1.1215 9 2.5C9 3.25962 9.341 3.94072 9.87744 4.39962C8.76238 4.98556 8 6.15534 8 7.5V10.5132C8 10.7284 8.13772 10.9194 8.34188 10.9875C9.36206 11.3276 10.4246 11.5 11.5 11.5C12.5754 11.5 13.6379 11.3276 14.6581 10.9875C14.8623 10.9195 15 10.7284 15 10.5132V7.5C15 6.15534 14.2376 4.98556 13.1226 4.39962ZM10 2.5C10 1.67291 10.6729 1 11.5 1C12.3271 1 13 1.67291 13 2.5C13 3.32709 12.3271 4 11.5 4C10.6729 4 10 3.32709 10 2.5ZM14 10.1451C12.3751 10.6143 10.6249 10.6143 9 10.1451V7.5C9 6.1215 10.1215 5 11.5 5C12.8785 5 14 6.1215 14 7.5V10.1451Z" fill="#222222"/>
</svg>
