<svg width="24" height="24" viewBox="0 0 24 24" fill="none" xmlns="http://www.w3.org/2000/svg">
<g clip-path="url(#clip0)">
<path d="M19.9688 23.2494H4.03125C2.84231 23.2494 1.875 22.2821 1.875 21.0932V9.74846C1.875 9.33427 2.21077 8.99846 2.625 8.99846C3.03923 8.99846 11 1.58594 11 2.00013L11.5 2.00017C11.1381 2.00017 11.5 2.36204 11.5 2.00017H13C13 2.36204 13.3619 2.00017 13 2.00017C13 1.58598 20.9608 8.99846 21.375 8.99846C21.7892 8.99846 22.125 9.33427 22.125 9.74846V21.0932C22.125 22.2821 21.1577 23.2494 19.9688 23.2494Z" fill="#AE0423"/>
<path d="M23.2502 12.373C23.0583 12.373 22.8664 12.2997 22.7199 12.1532L13.3923 2.82575C12.6247 2.05812 11.3758 2.05812 10.6081 2.82575L1.28058 12.1533C0.987701 12.4462 0.512811 12.4462 0.219936 12.1533C-0.0729863 11.8604 -0.0729863 11.3855 0.219936 11.0927L9.5475 1.76506C10.8999 0.412623 13.1006 0.412623 14.453 1.76506L23.7805 11.0926C24.0735 11.3855 24.0735 11.8604 23.7805 12.1532C23.6341 12.2997 23.4422 12.373 23.2502 12.373Z" fill="#AE0423"/>
<path d="M15 23.2493H9C8.58577 23.2493 8.89959 23.2493 8.25 23.2493V15.843C8.25 14.5507 9.30141 13.4993 10.5938 13.4993H13.4062C14.6986 13.4993 15.75 14.5507 15.75 15.843L15.8652 23.2493C15.1141 23.2493 15.4142 23.2493 15 23.2493ZM9.75 23.2493H14.25V15.843C14.25 15.3778 13.8715 14.9993 13.4062 14.9993H10.5938C10.1285 14.9993 9.75 15.3778 9.75 15.843V23.2493Z" fill="white"/>
</g>
<defs>
<clipPath id="clip0">
<rect width="24" height="24" fill="white"/>
</clipPath>
</defs>
</svg>
