<svg width="24" height="24" viewBox="0 0 24 24" fill="none" xmlns="http://www.w3.org/2000/svg">
<g clip-path="url(#clip0)">
<path d="M19.9688 23.2494H4.03125C2.84231 23.2494 1.875 22.2821 1.875 21.0931V9.74841C1.875 9.33423 2.21077 8.99841 2.625 8.99841C3.03923 8.99841 3.375 9.33423 3.375 9.74841V21.0931C3.375 21.455 3.66938 21.7494 4.03125 21.7494H19.9688C20.3306 21.7494 20.625 21.455 20.625 21.0931V9.74841C20.625 9.33423 20.9608 8.99841 21.375 8.99841C21.7892 8.99841 22.125 9.33423 22.125 9.74841V21.0931C22.125 22.282 21.1577 23.2494 19.9688 23.2494Z" fill="#999999"/>
<path d="M23.2502 12.373C23.0583 12.373 22.8664 12.2997 22.7199 12.1532L13.3923 2.82575C12.6247 2.05812 11.3758 2.05812 10.6081 2.82575L1.28058 12.1533C0.987701 12.4462 0.512811 12.4462 0.219936 12.1533C-0.0729863 11.8604 -0.0729863 11.3855 0.219936 11.0927L9.5475 1.76506C10.8999 0.412623 13.1006 0.412623 14.453 1.76506L23.7805 11.0926C24.0735 11.3855 24.0735 11.8604 23.7805 12.1532C23.6341 12.2997 23.4422 12.373 23.2502 12.373Z" fill="#999999"/>
<path d="M15 23.2493H9C8.58577 23.2493 8.25 22.9135 8.25 22.4993V15.843C8.25 14.5507 9.30141 13.4993 10.5938 13.4993H13.4062C14.6986 13.4993 15.75 14.5507 15.75 15.843V22.4993C15.75 22.9135 15.4142 23.2493 15 23.2493ZM9.75 21.7493H14.25V15.843C14.25 15.3778 13.8715 14.9993 13.4062 14.9993H10.5938C10.1285 14.9993 9.75 15.3778 9.75 15.843V21.7493Z" fill="#999999"/>
</g>
<defs>
<clipPath id="clip0">
<rect width="24" height="24" fill="white"/>
</clipPath>
</defs>
</svg>
