<svg width="20" height="20" viewBox="0 0 20 20" fill="none" xmlns="http://www.w3.org/2000/svg">
<path fill-rule="evenodd" clip-rule="evenodd" d="M14.5833 0H5.41667C2.42703 0.00459 0.00459 2.42703 0 5.41667V14.5833C0.00459 17.573 2.42703 19.9954 5.41667 20H14.5833C17.573 19.9954 19.9954 17.573 20 14.5833V5.41667C19.9954 2.42703 17.573 0.00459 14.5833 0ZM10 14.5833C7.46869 14.5833 5.41667 12.5313 5.41667 10C5.41667 7.46869 7.46869 5.41667 10 5.41667C12.5313 5.41667 14.5833 7.46869 14.5833 10C14.5833 11.2156 14.1004 12.3814 13.2409 13.2409C12.3814 14.1004 11.2156 14.5833 10 14.5833ZM14.1667 4.16667C14.1667 4.85702 14.7263 5.41667 15.4167 5.41667C15.7482 5.41667 16.0661 5.28497 16.3006 5.05055C16.535 4.81613 16.6667 4.49819 16.6667 4.16667C16.6667 3.47631 16.107 2.91667 15.4167 2.91667C14.7263 2.91667 14.1667 3.47631 14.1667 4.16667Z" fill="#0E7ACB"/>
</svg>
