<svg width="24" height="24" viewBox="0 0 24 24" fill="none" xmlns="http://www.w3.org/2000/svg">
<path d="M11.829 11.5609C13.4172 11.5609 14.7924 10.9913 15.9163 9.86737C17.0398 8.74365 17.6096 7.36871 17.6096 5.78027C17.6096 4.19238 17.04 2.81726 15.9161 1.69318C14.7922 0.569641 13.4171 0 11.829 0C10.2405 0 8.8656 0.569641 7.74188 1.69336C6.61816 2.81708 6.04834 4.1922 6.04834 5.78027C6.04834 7.36871 6.61816 8.74384 7.74188 9.86755C8.86597 10.9911 10.2411 11.5609 11.829 11.5609Z" fill="#AE0423"/>
<path d="M21.9435 18.4549C21.9111 17.9872 21.8456 17.4771 21.7491 16.9384C21.6517 16.3957 21.5262 15.8826 21.3761 15.4137C21.2208 14.929 21.0101 14.4504 20.7491 13.9917C20.4787 13.5156 20.1608 13.1011 19.8041 12.7599C19.4312 12.4031 18.9745 12.1161 18.4464 11.9069C17.9202 11.6987 17.337 11.5932 16.7131 11.5932C16.4681 11.5932 16.2312 11.6937 15.7736 11.9916C15.492 12.1753 15.1626 12.3877 14.7949 12.6226C14.4805 12.8229 14.0546 13.0106 13.5286 13.1805C13.0153 13.3466 12.4942 13.4308 11.9797 13.4308C11.4655 13.4308 10.9444 13.3466 10.4308 13.1805C9.90527 13.0108 9.47919 12.8231 9.16534 12.6228C8.80115 12.3901 8.47156 12.1777 8.18573 11.9915C7.72852 11.6935 7.49158 11.593 7.24658 11.593C6.62256 11.593 6.03955 11.6987 5.51349 11.907C4.98578 12.116 4.52893 12.4029 4.15558 12.7601C3.79889 13.1014 3.48102 13.5158 3.21075 13.9917C2.9502 14.4504 2.73926 14.9288 2.58398 15.4139C2.43402 15.8828 2.30859 16.3957 2.21118 16.9384C2.1145 17.4764 2.04913 17.9867 2.01672 18.4554C1.98486 18.9138 1.96875 19.3907 1.96875 19.8727C1.96875 21.1255 2.367 22.1397 3.15234 22.8877C3.92798 23.6258 4.9541 24.0001 6.20233 24.0001H17.7585C19.0063 24.0001 20.0325 23.6258 20.8083 22.8877C21.5938 22.1403 21.9921 21.1257 21.9921 19.8725C21.9919 19.3889 21.9756 18.9119 21.9435 18.4549Z" fill="#AE0423"/>
</svg>
