<svg width="24" height="24" viewBox="0 0 24 24" fill="none" xmlns="http://www.w3.org/2000/svg">
<path d="M11.829 11.5609C13.4172 11.5609 14.7924 10.9913 15.9163 9.86737C17.0398 8.74365 17.6096 7.36871 17.6096 5.78027C17.6096 4.19238 17.04 2.81726 15.9161 1.69318C14.7922 0.569641 13.4171 0 11.829 0C10.2405 0 8.8656 0.569641 7.74188 1.69336C6.61816 2.81708 6.04834 4.1922 6.04834 5.78027C6.04834 7.36871 6.61816 8.74384 7.74188 9.86755C8.86597 10.9911 10.2411 11.5609 11.829 11.5609ZM8.73651 2.68781C9.59875 1.82556 10.6102 1.40643 11.829 1.40643C13.0475 1.40643 14.0592 1.82556 14.9216 2.68781C15.7839 3.55023 16.2032 4.56189 16.2032 5.78027C16.2032 6.99902 15.7839 8.0105 14.9216 8.87292C14.0592 9.73535 13.0475 10.1545 11.829 10.1545C10.6106 10.1545 9.59912 9.73517 8.73651 8.87292C7.87408 8.01068 7.45477 6.99902 7.45477 5.78027C7.45477 4.56189 7.87408 3.55023 8.73651 2.68781Z" fill="#999999"/>
<path d="M21.9435 18.4549C21.9111 17.9872 21.8456 17.4771 21.7491 16.9384C21.6517 16.3957 21.5262 15.8826 21.3761 15.4137C21.2208 14.929 21.0101 14.4504 20.7491 13.9917C20.4787 13.5156 20.1608 13.1011 19.8041 12.7599C19.4312 12.4031 18.9745 12.1161 18.4464 11.9069C17.9202 11.6987 17.337 11.5932 16.7131 11.5932C16.4681 11.5932 16.2312 11.6937 15.7736 11.9916C15.492 12.1753 15.1626 12.3877 14.7949 12.6226C14.4805 12.8229 14.0546 13.0106 13.5286 13.1805C13.0153 13.3466 12.4942 13.4308 11.9797 13.4308C11.4655 13.4308 10.9444 13.3466 10.4308 13.1805C9.90527 13.0108 9.47919 12.8231 9.16534 12.6228C8.80115 12.3901 8.47156 12.1777 8.18573 11.9915C7.72852 11.6935 7.49158 11.593 7.24658 11.593C6.62256 11.593 6.03955 11.6987 5.51349 11.907C4.98578 12.116 4.52893 12.4029 4.15558 12.7601C3.79889 13.1014 3.48102 13.5158 3.21075 13.9917C2.9502 14.4504 2.73926 14.9288 2.58398 15.4139C2.43402 15.8828 2.30859 16.3957 2.21118 16.9384C2.1145 17.4764 2.04913 17.9867 2.01672 18.4554C1.98486 18.9138 1.96875 19.3907 1.96875 19.8727C1.96875 21.1255 2.367 22.1397 3.15234 22.8877C3.92798 23.6258 4.9541 24.0001 6.20233 24.0001H17.7585C19.0063 24.0001 20.0325 23.6258 20.8083 22.8877C21.5938 22.1403 21.9921 21.1257 21.9921 19.8725C21.9919 19.3889 21.9756 18.9119 21.9435 18.4549ZM19.8386 21.8687C19.326 22.3565 18.6456 22.5936 17.7583 22.5936H6.20233C5.31482 22.5936 4.6344 22.3565 4.12207 21.8689C3.61945 21.3904 3.37518 20.7373 3.37518 19.8727C3.37518 19.423 3.39001 18.9789 3.41968 18.5527C3.44861 18.1345 3.50775 17.675 3.59546 17.1869C3.68207 16.7048 3.7923 16.2523 3.9234 15.8427C4.04919 15.45 4.22076 15.061 4.43353 14.6864C4.6366 14.3293 4.87024 14.023 5.12805 13.7762C5.3692 13.5453 5.67316 13.3563 6.03131 13.2146C6.36255 13.0835 6.7348 13.0117 7.13892 13.0009C7.18817 13.0271 7.27588 13.0771 7.41797 13.1697C7.70709 13.3582 8.04034 13.5731 8.40875 13.8084C8.82404 14.0732 9.35907 14.3123 9.99829 14.5187C10.6518 14.73 11.3183 14.8373 11.9799 14.8373C12.6414 14.8373 13.3081 14.73 13.9612 14.5189C14.601 14.3121 15.1359 14.0732 15.5517 13.808C15.9287 13.5671 16.2526 13.3583 16.5417 13.1697C16.6838 13.0773 16.7715 13.0271 16.8208 13.0009C17.2251 13.0117 17.5974 13.0835 17.9288 13.2146C18.2867 13.3563 18.5907 13.5455 18.8318 13.7762C19.0897 14.0228 19.3233 14.3292 19.5264 14.6866C19.7393 15.061 19.9111 15.4501 20.0367 15.8425C20.168 16.2527 20.2784 16.705 20.3648 17.1867C20.4523 17.6758 20.5117 18.1354 20.5406 18.5529V18.5532C20.5704 18.9778 20.5854 19.4217 20.5856 19.8727C20.5854 20.7375 20.3412 21.3904 19.8386 21.8687Z" fill="#999999"/>
</svg>
