<!-- <svg width="20" height="17" viewBox="0 0 20 17" fill="none" xmlns="http://www.w3.org/2000/svg">
<path d="M20 17L8.58182 12.5243L15.7321 5.45354L16.0364 5.15266L15.5681 5.00221L0 0L10.5091 5.6792L0 15.7589L20 17Z" fill="#AE0423"/>
</svg> -->

<svg width="360" height="147" viewBox="0 0 360 147" fill="none" xmlns="http://www.w3.org/2000/svg">
<g opacity="0.1">
<mask id="mask0" mask-type="alpha" maskUnits="userSpaceOnUse" x="0" y="0" width="360" height="147">
<rect width="360" height="147" fill="#C4C4C4"/>
</mask>
<g mask="url(#mask0)">
<path d="M42 17L30.5818 12.5243L37.7321 5.45354L38.0364 5.15266L37.5681 5.00221L22 0L32.5091 5.6792L22 15.7589L42 17Z" fill="#AE0423"/>
<path d="M42 69L30.5818 64.5243L37.7321 57.4535L38.0364 57.1527L37.5681 57.0022L22 52L32.5091 57.6792L22 67.7589L42 69Z" fill="#AE0423"/>
<path d="M42 121L30.5818 116.524L37.7321 109.454L38.0364 109.153L37.5681 109.002L22 104L32.5091 109.679L22 119.759L42 121Z" fill="#AE0423"/>
<path d="M24 43L12.5818 38.5243L19.7321 31.4535L20.0364 31.1527L19.5681 31.0022L4 26L14.5091 31.6792L4 41.7589L24 43Z" fill="#AE0423"/>
<path d="M24 95L12.5818 90.5243L19.7321 83.4535L20.0364 83.1527L19.5681 83.0022L4 78L14.5091 83.6792L4 93.7589L24 95Z" fill="#AE0423"/>
<path d="M24 147L12.5818 142.524L19.7321 135.454L20.0364 135.153L19.5681 135.002L4 130L14.5091 135.679L4 145.759L24 147Z" fill="#AE0423"/>
<path d="M77 17L65.5818 12.5243L72.7321 5.45354L73.0364 5.15266L72.5681 5.00221L57 0L67.5091 5.6792L57 15.7589L77 17Z" fill="#AE0423"/>
<path d="M77 69L65.5818 64.5243L72.7321 57.4535L73.0364 57.1527L72.5681 57.0022L57 52L67.5091 57.6792L57 67.7589L77 69Z" fill="#AE0423"/>
<path d="M77 121L65.5818 116.524L72.7321 109.454L73.0364 109.153L72.5681 109.002L57 104L67.5091 109.679L57 119.759L77 121Z" fill="#AE0423"/>
<path d="M59 43L47.5818 38.5243L54.7321 31.4535L55.0364 31.1527L54.5681 31.0022L39 26L49.5091 31.6792L39 41.7589L59 43Z" fill="#AE0423"/>
<path d="M59 95L47.5818 90.5243L54.7321 83.4535L55.0364 83.1527L54.5681 83.0022L39 78L49.5091 83.6792L39 93.7589L59 95Z" fill="#AE0423"/>
<path d="M59 147L47.5818 142.524L54.7321 135.454L55.0364 135.153L54.5681 135.002L39 130L49.5091 135.679L39 145.759L59 147Z" fill="#AE0423"/>
<path d="M112 17L100.582 12.5243L107.732 5.45354L108.036 5.15266L107.568 5.00221L92 0L102.509 5.6792L92 15.7589L112 17Z" fill="#AE0423"/>
<path d="M112 69L100.582 64.5243L107.732 57.4535L108.036 57.1527L107.568 57.0022L92 52L102.509 57.6792L92 67.7589L112 69Z" fill="#AE0423"/>
<path d="M112 121L100.582 116.524L107.732 109.454L108.036 109.153L107.568 109.002L92 104L102.509 109.679L92 119.759L112 121Z" fill="#AE0423"/>
<path d="M94 43L82.5818 38.5243L89.7321 31.4535L90.0364 31.1527L89.5681 31.0022L74 26L84.5091 31.6792L74 41.7589L94 43Z" fill="#AE0423"/>
<path d="M94 95L82.5818 90.5243L89.7321 83.4535L90.0364 83.1527L89.5681 83.0022L74 78L84.5091 83.6792L74 93.7589L94 95Z" fill="#AE0423"/>
<path d="M94 147L82.5818 142.524L89.7321 135.454L90.0364 135.153L89.5681 135.002L74 130L84.5091 135.679L74 145.759L94 147Z" fill="#AE0423"/>
<path d="M147 17L135.582 12.5243L142.732 5.45354L143.036 5.15266L142.568 5.00221L127 0L137.509 5.6792L127 15.7589L147 17Z" fill="#AE0423"/>
<path d="M147 69L135.582 64.5243L142.732 57.4535L143.036 57.1527L142.568 57.0022L127 52L137.509 57.6792L127 67.7589L147 69Z" fill="#AE0423"/>
<path d="M147 121L135.582 116.524L142.732 109.454L143.036 109.153L142.568 109.002L127 104L137.509 109.679L127 119.759L147 121Z" fill="#AE0423"/>
<path d="M129 43L117.582 38.5243L124.732 31.4535L125.036 31.1527L124.568 31.0022L109 26L119.509 31.6792L109 41.7589L129 43Z" fill="#AE0423"/>
<path d="M129 95L117.582 90.5243L124.732 83.4535L125.036 83.1527L124.568 83.0022L109 78L119.509 83.6792L109 93.7589L129 95Z" fill="#AE0423"/>
<path d="M129 147L117.582 142.524L124.732 135.454L125.036 135.153L124.568 135.002L109 130L119.509 135.679L109 145.759L129 147Z" fill="#AE0423"/>
<path d="M182 17L170.582 12.5243L177.732 5.45354L178.036 5.15266L177.568 5.00221L162 0L172.509 5.6792L162 15.7589L182 17Z" fill="#AE0423"/>
<path d="M182 69L170.582 64.5243L177.732 57.4535L178.036 57.1527L177.568 57.0022L162 52L172.509 57.6792L162 67.7589L182 69Z" fill="#AE0423"/>
<path d="M182 121L170.582 116.524L177.732 109.454L178.036 109.153L177.568 109.002L162 104L172.509 109.679L162 119.759L182 121Z" fill="#AE0423"/>
<path d="M164 43L152.582 38.5243L159.732 31.4535L160.036 31.1527L159.568 31.0022L144 26L154.509 31.6792L144 41.7589L164 43Z" fill="#AE0423"/>
<path d="M164 95L152.582 90.5243L159.732 83.4535L160.036 83.1527L159.568 83.0022L144 78L154.509 83.6792L144 93.7589L164 95Z" fill="#AE0423"/>
<path d="M164 147L152.582 142.524L159.732 135.454L160.036 135.153L159.568 135.002L144 130L154.509 135.679L144 145.759L164 147Z" fill="#AE0423"/>
<path d="M217 17L205.582 12.5243L212.732 5.45354L213.036 5.15266L212.568 5.00221L197 0L207.509 5.6792L197 15.7589L217 17Z" fill="#AE0423"/>
<path d="M217 69L205.582 64.5243L212.732 57.4535L213.036 57.1527L212.568 57.0022L197 52L207.509 57.6792L197 67.7589L217 69Z" fill="#AE0423"/>
<path d="M217 121L205.582 116.524L212.732 109.454L213.036 109.153L212.568 109.002L197 104L207.509 109.679L197 119.759L217 121Z" fill="#AE0423"/>
<path d="M199 43L187.582 38.5243L194.732 31.4535L195.036 31.1527L194.568 31.0022L179 26L189.509 31.6792L179 41.7589L199 43Z" fill="#AE0423"/>
<path d="M199 95L187.582 90.5243L194.732 83.4535L195.036 83.1527L194.568 83.0022L179 78L189.509 83.6792L179 93.7589L199 95Z" fill="#AE0423"/>
<path d="M199 147L187.582 142.524L194.732 135.454L195.036 135.153L194.568 135.002L179 130L189.509 135.679L179 145.759L199 147Z" fill="#AE0423"/>
<path d="M252 17L240.582 12.5243L247.732 5.45354L248.036 5.15266L247.568 5.00221L232 0L242.509 5.6792L232 15.7589L252 17Z" fill="#AE0423"/>
<path d="M252 69L240.582 64.5243L247.732 57.4535L248.036 57.1527L247.568 57.0022L232 52L242.509 57.6792L232 67.7589L252 69Z" fill="#AE0423"/>
<path d="M252 121L240.582 116.524L247.732 109.454L248.036 109.153L247.568 109.002L232 104L242.509 109.679L232 119.759L252 121Z" fill="#AE0423"/>
<path d="M234 43L222.582 38.5243L229.732 31.4535L230.036 31.1527L229.568 31.0022L214 26L224.509 31.6792L214 41.7589L234 43Z" fill="#AE0423"/>
<path d="M234 95L222.582 90.5243L229.732 83.4535L230.036 83.1527L229.568 83.0022L214 78L224.509 83.6792L214 93.7589L234 95Z" fill="#AE0423"/>
<path d="M234 147L222.582 142.524L229.732 135.454L230.036 135.153L229.568 135.002L214 130L224.509 135.679L214 145.759L234 147Z" fill="#AE0423"/>
<path d="M287 17L275.582 12.5243L282.732 5.45354L283.036 5.15266L282.568 5.00221L267 0L277.509 5.6792L267 15.7589L287 17Z" fill="#AE0423"/>
<path d="M287 69L275.582 64.5243L282.732 57.4535L283.036 57.1527L282.568 57.0022L267 52L277.509 57.6792L267 67.7589L287 69Z" fill="#AE0423"/>
<path d="M287 121L275.582 116.524L282.732 109.454L283.036 109.153L282.568 109.002L267 104L277.509 109.679L267 119.759L287 121Z" fill="#AE0423"/>
<path d="M269 43L257.582 38.5243L264.732 31.4535L265.036 31.1527L264.568 31.0022L249 26L259.509 31.6792L249 41.7589L269 43Z" fill="#AE0423"/>
<path d="M269 95L257.582 90.5243L264.732 83.4535L265.036 83.1527L264.568 83.0022L249 78L259.509 83.6792L249 93.7589L269 95Z" fill="#AE0423"/>
<path d="M269 147L257.582 142.524L264.732 135.454L265.036 135.153L264.568 135.002L249 130L259.509 135.679L249 145.759L269 147Z" fill="#AE0423"/>
<path d="M322 17L310.582 12.5243L317.732 5.45354L318.036 5.15266L317.568 5.00221L302 0L312.509 5.6792L302 15.7589L322 17Z" fill="#AE0423"/>
<path d="M322 69L310.582 64.5243L317.732 57.4535L318.036 57.1527L317.568 57.0022L302 52L312.509 57.6792L302 67.7589L322 69Z" fill="#AE0423"/>
<path d="M322 121L310.582 116.524L317.732 109.454L318.036 109.153L317.568 109.002L302 104L312.509 109.679L302 119.759L322 121Z" fill="#AE0423"/>
<path d="M304 43L292.582 38.5243L299.732 31.4535L300.036 31.1527L299.568 31.0022L284 26L294.509 31.6792L284 41.7589L304 43Z" fill="#AE0423"/>
<path d="M304 95L292.582 90.5243L299.732 83.4535L300.036 83.1527L299.568 83.0022L284 78L294.509 83.6792L284 93.7589L304 95Z" fill="#AE0423"/>
<path d="M304 147L292.582 142.524L299.732 135.454L300.036 135.153L299.568 135.002L284 130L294.509 135.679L284 145.759L304 147Z" fill="#AE0423"/>
<path d="M357 17L345.582 12.5243L352.732 5.45354L353.036 5.15266L352.568 5.00221L337 0L347.509 5.6792L337 15.7589L357 17Z" fill="#AE0423"/>
<path d="M357 69L345.582 64.5243L352.732 57.4535L353.036 57.1527L352.568 57.0022L337 52L347.509 57.6792L337 67.7589L357 69Z" fill="#AE0423"/>
<path d="M357 121L345.582 116.524L352.732 109.454L353.036 109.153L352.568 109.002L337 104L347.509 109.679L337 119.759L357 121Z" fill="#AE0423"/>
<path d="M339 43L327.582 38.5243L334.732 31.4535L335.036 31.1527L334.568 31.0022L319 26L329.509 31.6792L319 41.7589L339 43Z" fill="#AE0423"/>
<path d="M339 95L327.582 90.5243L334.732 83.4535L335.036 83.1527L334.568 83.0022L319 78L329.509 83.6792L319 93.7589L339 95Z" fill="#AE0423"/>
<path d="M339 147L327.582 142.524L334.732 135.454L335.036 135.153L334.568 135.002L319 130L329.509 135.679L319 145.759L339 147Z" fill="#AE0423"/>
<rect x="-3" y="7" width="360" height="147" fill="url(#paint0_linear)"/>
</g>
</g>
<defs>
<linearGradient id="paint0_linear" x1="177" y1="7" x2="177" y2="154" gradientUnits="userSpaceOnUse">
<stop stop-color="white" stop-opacity="0"/>
<stop offset="1" stop-color="white"/>
</linearGradient>
</defs>
</svg>
