<svg width="6" height="9" viewBox="0 0 6 9" fill="none" xmlns="http://www.w3.org/2000/svg">
<path fill-rule="evenodd" clip-rule="evenodd" d="M0.925669 8.06804C0.793659 7.93229 0.796694 7.71522 0.932447 7.58322L4.44052 4.17188L0.932447 0.760535C0.796694 0.628525 0.793659 0.411462 0.925669 0.275709C1.05768 0.139956 1.27474 0.136922 1.41049 0.268931L4.99398 3.7536C4.994 3.75362 4.99402 3.75364 4.99404 3.75366C4.99409 3.7537 4.99413 3.75374 4.99417 3.75378C5.10651 3.86296 5.17147 4.01315 5.17147 4.17188C5.17147 4.3306 5.10651 4.48079 4.99417 4.58997C4.9941 4.59003 4.99404 4.59009 4.99398 4.59015L1.41049 8.07482C1.27474 8.20683 1.05768 8.20379 0.925669 8.06804ZM4.51631 4.24557C4.51624 4.24551 4.51618 4.24545 4.51612 4.24539L4.51631 4.24557Z" fill="#AE0423"/>
</svg>
