<svg width="16" height="16" viewBox="0 0 16 16" fill="none" xmlns="http://www.w3.org/2000/svg">
<path d="M15.9278 6.00092C15.7356 5.38689 15.2109 4.99013 14.5911 4.99013H10.5942L9.33554 1.00697C9.14206 0.394669 8.61845 0 8.00044 0C7.99847 0 7.99644 -1.78877e-08 7.99447 3.25429e-05C7.37393 0.00257228 6.85053 0.402125 6.66109 1.01795L5.43913 4.99013H1.40896C0.78761 4.99013 0.262494 5.38822 0.071208 6.00427C-0.12011 6.62032 0.0816753 7.26352 0.585294 7.64286L3.84613 10.099L2.59099 14.0712C2.39673 14.6859 2.59514 15.33 3.09645 15.7121C3.34823 15.904 3.63722 16 3.9264 16C4.21295 16 4.49966 15.9057 4.75019 15.717L8.01668 13.2566L11.2444 15.7128C11.7451 16.0939 12.3936 16.0957 12.8964 15.7176C13.3992 15.3395 13.6018 14.6975 13.4125 14.0822L12.1871 10.099L15.4203 7.63866C15.9208 7.25776 16.12 6.61491 15.9278 6.00092Z" fill="#AE0423"/>
</svg>
