<svg width="12" height="12" viewBox="0 0 12 12" fill="none" xmlns="http://www.w3.org/2000/svg">
<circle cx="6" cy="6" r="6" fill="white"/>
<path fill-rule="evenodd" clip-rule="evenodd" d="M3.35355 8.30225C3.15829 8.49751 3.15829 8.81409 3.35355 9.00936C3.54882 9.20462 3.8654 9.20462 4.06066 9.00936L6.18164 6.88838L8.30323 9.00996C8.49849 9.20522 8.81507 9.20522 9.01033 9.00996C9.20559 8.8147 9.20559 8.49812 9.01033 8.30285L6.88875 6.18127L9.01041 4.05961C9.20567 3.86435 9.20567 3.54776 9.01041 3.3525C8.81515 3.15724 8.49856 3.15724 8.3033 3.3525L6.18164 5.47416L4.06058 3.35311C3.86532 3.15784 3.54874 3.15784 3.35348 3.35311C3.15822 3.54837 3.15822 3.86495 3.35348 4.06021L5.47453 6.18127L3.35355 8.30225Z" fill="#F00000"/>
</svg>
